<svg xmlns="http://www.w3.org/2000/svg" width="512" height="512" viewBox="0 0 512 512">
  <defs>
    <linearGradient id="g1" x1="0" y1="0" x2="1" y2="1">
      <stop offset="0" stop-color="#3B82F6"/>
      <stop offset="1" stop-color="#10B981"/>
    </linearGradient>
    <linearGradient id="g2" x1="1" y1="0" x2="0" y2="1">
      <stop offset="0" stop-color="#22D3EE"/>
      <stop offset="1" stop-color="#6366F1"/>
    </linearGradient>
    <filter id="soft" x="-20%" y="-20%" width="140%" height="140%">
      <feGaussianBlur in="SourceAlpha" stdDeviation="8" result="blur"/>
      <feOffset dx="0" dy="8" result="off"/>
      <feColorMatrix in="off" type="matrix" values="0 0 0 0 0  0 0 0 0 0  0 0 0 0 0  0 0 0 .15 0"/>
      <feBlend in="SourceGraphic" in2="off" mode="normal"/>
    </filter>
  </defs>
  <rect x="32" y="32" width="448" height="448" rx="96" fill="url(#g1)"/>
  <rect x="64" y="64" width="384" height="384" rx="80" fill="url(#g2)" opacity=".25"/>
  <!-- ledger -->
  <g filter="url(#soft)">
    <rect x="132" y="148" width="248" height="220" rx="24" fill="white" opacity="0.95"/>
    <rect x="156" y="176" width="120" height="16" rx="8" fill="#94A3B8"/>
    <rect x="156" y="212" width="200" height="16" rx="8" fill="#CBD5E1"/>
    <rect x="156" y="248" width="180" height="16" rx="8" fill="#E2E8F0"/>
    <rect x="156" y="284" width="150" height="16" rx="8" fill="#E2E8F0"/>
  </g>
  <!-- coin -->
  <circle cx="344" cy="332" r="40" fill="#FBBF24"/>
  <circle cx="344" cy="332" r="32" fill="#F59E0B"/>
  <!-- check -->
  <path d="M324 332 l14 14 28-30" fill="none" stroke="white" stroke-width="10" stroke-linecap="round" stroke-linejoin="round"/>
</svg>